<?xml version="1.0" encoding="utf-8"?>
<!-- Generator: Adobe Illustrator 25.2.2, SVG Export Plug-In . SVG Version: 6.00 Build 0)  -->
<svg version="1.1" id="Layer_1" xmlns="http://www.w3.org/2000/svg" xmlns:xlink="http://www.w3.org/1999/xlink" x="0px" y="0px"
	 viewBox="0 0 300 300" style="enable-background:new 0 0 300 300;" xml:space="preserve">
<style type="text/css">
	.st0{fill:none;stroke:#E6E7E8;stroke-width:9;stroke-linejoin:round;stroke-miterlimit:10;}
	.st1{fill:none;stroke:#215A9A;stroke-width:9;stroke-miterlimit:10;}
	.st2{fill:#215A9A;}
	.st3{fill:none;stroke:#58595B;stroke-width:10;stroke-linejoin:round;stroke-miterlimit:10;}
	.st4{fill:none;}
	.st5{display:none;}
	.st6{display:inline;fill:none;stroke:#FFFFFF;stroke-width:0.25;stroke-miterlimit:10;}
	.st7{display:inline;fill:none;stroke:#231F20;stroke-width:0.25;stroke-miterlimit:10;}
	.st8{display:inline;fill:none;}
</style>
<g id="Layer_1_1_">
	<line class="st0" x1="234.37" y1="80.5" x2="277.98" y2="80.5"/>
	<line class="st0" x1="234.37" y1="152.55" x2="277.98" y2="152.55"/>
	<line class="st1" x1="255.26" y1="117.08" x2="300.71" y2="117.08"/>
	<line class="st0" x1="65.2" y1="152.54" x2="21.59" y2="152.54"/>
	<line class="st0" x1="65.2" y1="80.49" x2="21.59" y2="80.49"/>
	<line class="st1" x1="44.31" y1="115.96" x2="-1.14" y2="115.96"/>
	<path class="st1" d="M133.14,80.84c0,20.94,0,41.89,0,62.85c14.61,0,29.23,0,43.84,0"/>
	<g>
		<g>
			<path class="st2" d="M45.34,233.35h5.22v37.67h20.28l-0.74,4.45H45.35L45.34,233.35L45.34,233.35z"/>
			<path class="st2" d="M75.91,231.04h5.05v6.57h-5.05V231.04z M75.91,244.54h5.05v30.94h-5.05V244.54z"/>
			<path class="st2" d="M89.89,254.21c0-6.45-0.06-8.36-0.12-9.69h4.96c0.08,0.59,0.23,3.56,0.18,4.85
				c1.28-2.77,4.06-5.46,9.12-5.46c5.73,0,9.84,3.23,9.84,11.59v19.95h-5.09v-19.17c0-4.5-1.52-7.95-6.13-7.95
				c-5.52,0-7.73,4.09-7.73,10.58v16.53h-5.05L89.89,254.21L89.89,254.21z"/>
			<path class="st2" d="M172.93,249.64l-10.12,15.41c-5.31,7.99-8.06,11.01-14.88,11.01c-7.08,0-11.71-4.93-11.71-11.37
				c0-5.26,3.19-9.14,10.73-13.15c6.5-3.53,8.52-5.76,8.52-9.32c0-2.54-1.5-5.46-5.29-5.46c-3.41,0-5.31,2.39-5.31,5.66
				c0,2.82,1.35,4.85,4.7,8.11l25.52,24.94h-6.96l-22.73-22.54c-3.4-3.49-5.32-6.38-5.32-10.37c0-5.01,3.47-9.77,10.23-9.77
				c6.22,0,9.77,4.3,9.77,9.34c0,5.47-3.37,8.25-10.07,12.02c-6.55,3.71-8.55,6.3-8.55,10.18c0,3.89,2.72,7.05,6.93,7.05
				c5,0,7.16-2.92,10.84-8.64l8.36-13.1L172.93,249.64L172.93,249.64z"/>
			<path class="st2" d="M196.23,233.35h5.22v37.67h20.28l-0.74,4.45h-24.75L196.23,233.35L196.23,233.35z"/>
			<path class="st2" d="M226.8,231.04h5.05v6.57h-5.05V231.04z M226.8,244.54h5.05v30.94h-5.05V244.54z"/>
			<path class="st2" d="M240.78,254.21c0-6.45-0.06-8.36-0.12-9.69h4.96c0.08,0.59,0.23,3.56,0.18,4.85
				c1.28-2.77,4.06-5.46,9.12-5.46c5.73,0,9.85,3.23,9.85,11.59v19.95h-5.09v-19.17c0-4.5-1.52-7.95-6.13-7.95
				c-5.52,0-7.73,4.09-7.73,10.58v16.53h-5.05L240.78,254.21L240.78,254.21z"/>
		</g>
	</g>
	<path class="st3" d="M99.25,207.08l-54.94-90.97C62.62,86.05,80.93,56,99.25,25.94"/>
	<path class="st3" d="M198.22,25.94l54.94,90.97c-18.31,30.07-36.62,60.11-54.94,90.18"/>
	<line class="st4" x1="-51" y1="-50" x2="-51" y2="350"/>
</g>
<g id="border" class="st5">
	<rect x="-50" y="-50" class="st6" width="400" height="400"/>
	<rect x="-10" y="-10" class="st7" width="320" height="320"/>
	<rect x="30" y="30" class="st7" width="240" height="240"/>
	<line class="st8" x1="-50" y1="-50" x2="350" y2="-50"/>
	<line class="st7" x1="150" y1="-79.36" x2="150" y2="391.7"/>
	<line class="st7" x1="-65.09" y1="150" x2="463.43" y2="150"/>
</g>
</svg>
